<svg width="17" height="16" viewBox="0 0 17 16" fill="none" xmlns="http://www.w3.org/2000/svg">
<path d="M14.624 12.5712C14.2309 12.1946 13.8482 11.8073 13.4765 11.4095C13.1642 11.0922 12.9762 10.8614 12.9762 10.8614L10.6257 9.73917C11.5667 8.67203 12.0861 7.29828 12.0863 5.87556C12.0863 2.63645 9.45046 0 6.21017 0C2.96987 0 0.333984 2.63645 0.333984 5.87556C0.333984 9.11468 2.96987 11.7511 6.21017 11.7511C7.69012 11.7511 9.03913 11.1971 10.0742 10.2915L11.1965 12.6417C11.1965 12.6417 11.4274 12.8297 11.7447 13.142C12.0696 13.4466 12.4968 13.8588 12.9065 14.2894L14.0465 15.4578L14.5535 16L16.334 14.2197L15.7917 13.7127C15.4735 13.4005 15.0488 12.9858 14.624 12.5712ZM6.21017 10.0724C3.89579 10.0724 2.01289 8.1897 2.01289 5.87556C2.01289 3.56143 3.89579 1.67873 6.21017 1.67873C8.52454 1.67873 10.4074 3.56143 10.4074 5.87556C10.4074 8.1897 8.52454 10.0724 6.21017 10.0724Z" fill="black"/>
</svg>
