<svg width="54" height="54" viewBox="0 0 54 54" fill="none" xmlns="http://www.w3.org/2000/svg">
<path fill-rule="evenodd" clip-rule="evenodd" d="M0 26.6667C0 11.9391 11.9391 0 26.6667 0C33.7391 0 40.5219 2.80952 45.5229 7.81046C50.5238 12.8115 53.3333 19.5943 53.3333 26.6667C53.3333 41.3943 41.3943 53.3334 26.6667 53.3334C11.9391 53.3334 0 41.3943 0 26.6667ZM21.7868 38.0801L37.3334 28.3734C37.9152 28.0008 38.2671 27.3576 38.2671 26.6667C38.2671 25.9759 37.9152 25.3326 37.3334 24.9601L21.7334 15.2534C21.119 14.866 20.3428 14.8422 19.7058 15.1911C19.0688 15.5401 18.671 16.207 18.6668 16.9334V36.4001C18.6582 37.1441 19.0633 37.8314 19.7184 38.1841C20.3735 38.5369 21.1703 38.4968 21.7868 38.0801Z" fill="white"/>
</svg>
