<svg width="46" height="46" viewBox="0 0 46 46" fill="none" xmlns="http://www.w3.org/2000/svg">
<path d="M44.3159 36.4617L33.2429 17.2833L37.921 11.8119C38.1932 11.4943 38.1558 11.0162 37.8377 10.744C37.5196 10.4719 37.041 10.5097 36.7703 10.8278L32.4401 15.8922L23.6292 0.631438C23.4939 0.397154 23.244 0.252747 22.9733 0.252747C22.7027 0.252747 22.4528 0.397154 22.3174 0.631438L13.5065 15.8927L9.17634 10.8283C8.90419 10.5107 8.42602 10.4734 8.10843 10.7445C7.79033 11.0167 7.75296 11.4943 8.02461 11.8124L12.7032 17.2838L1.63079 36.4617C1.49547 36.696 1.49547 36.9848 1.63079 37.2191C1.76611 37.4534 2.01604 37.5978 2.28668 37.5978H13.8807L8.02512 44.446C7.75347 44.7641 7.79083 45.2418 8.10893 45.5134C8.25183 45.6356 8.42653 45.6952 8.60073 45.6952C8.81431 45.6952 9.02688 45.6048 9.17684 45.4301L15.8741 37.5973H30.0735L36.7708 45.4301C36.9198 45.6058 37.1323 45.6957 37.3464 45.6957C37.5206 45.6957 37.6953 45.6361 37.8382 45.5139C38.1563 45.2423 38.1937 44.7646 37.9215 44.4465L32.0655 37.5978H43.66C43.9306 37.5978 44.1805 37.4534 44.3159 37.2191C44.4512 36.9848 44.4512 36.696 44.3159 36.4617ZM22.9733 2.52489L31.3959 17.1136L22.9733 26.9641L14.5507 17.1136L22.9733 2.52489ZM3.59847 36.083L13.7474 18.5047L21.9766 28.129L15.1758 36.083H3.59847ZM17.1687 36.083L22.9733 29.2943L28.7779 36.083H17.1687ZM30.7703 36.083L23.9695 28.129L32.1993 18.5042L42.3482 36.0825L30.7703 36.083Z" fill="black"/>
</svg>
