<svg width="46" height="46" viewBox="0 0 46 46" fill="none" xmlns="http://www.w3.org/2000/svg">
<path d="M44.9385 5.27975H9.61564C9.19706 5.27975 8.85826 5.61856 8.85826 6.03714C8.85826 6.45572 9.19706 6.79452 9.61564 6.79452H44.1811V20.1038C34.7365 17.7745 18.4053 15.3711 8.24276 22.9611C3.20414 26.7243 0.51594 32.4183 0.253381 39.8846C0.246312 40.0896 0.322555 40.2895 0.465448 40.4375C0.608341 40.5854 0.804755 40.6687 1.01026 40.6687H44.9385C45.3565 40.6687 45.6958 40.3294 45.6958 39.9113V21.0752V6.03714C45.6958 5.61856 45.3565 5.27975 44.9385 5.27975ZM44.1811 39.1539H1.8045C2.20339 32.5556 4.67195 27.518 9.14909 24.1744C16.3654 18.7844 29.1127 17.8765 44.1811 21.664V39.1539Z" fill="black"/>
<path d="M24.9944 33.0727C26.9464 33.0727 28.5289 31.4902 28.5289 29.5382C28.5289 27.5862 26.9464 26.0038 24.9944 26.0038C23.0424 26.0038 21.46 27.5862 21.46 29.5382C21.46 31.4902 23.0424 33.0727 24.9944 33.0727Z" fill="black"/>
<path d="M35.0921 33.0727C37.0441 33.0727 38.6265 31.4902 38.6265 29.5382C38.6265 27.5862 37.0441 26.0038 35.0921 26.0038C33.14 26.0038 31.5576 27.5862 31.5576 29.5382C31.5576 31.4902 33.14 33.0727 35.0921 33.0727Z" fill="black"/>
<path d="M14.8958 33.0727C16.8478 33.0727 18.4302 31.4902 18.4302 29.5382C18.4302 27.5862 16.8478 26.0038 14.8958 26.0038C12.9438 26.0038 11.3613 27.5862 11.3613 29.5382C11.3613 31.4902 12.9438 33.0727 14.8958 33.0727Z" fill="black"/>
</svg>
