<svg width="46" height="46" viewBox="0 0 46 46" fill="none" xmlns="http://www.w3.org/2000/svg">
<path d="M45.6793 8.77028C45.7641 8.36028 45.5006 7.96038 45.0906 7.87556C44.6801 7.79123 44.2807 8.0543 44.1964 8.46429L43.6192 11.2646C40.16 9.07071 36.3726 9.11261 32.9285 11.4014C29.9515 13.3807 26.671 13.3797 23.694 11.4014C20.1752 9.06414 16.3009 9.06364 12.7826 11.4014C9.80562 13.3797 6.52565 13.3797 3.54813 11.4014C3.16792 11.149 2.77762 10.9197 2.38782 10.7218C2.32521 10.69 2.26159 10.6627 2.19898 10.6324L1.75212 8.46429C1.6678 8.0543 1.26689 7.79073 0.857398 7.87556C0.447401 7.95988 0.184337 8.36028 0.268659 8.77028L6.18533 37.4842C6.25804 37.8361 6.56756 38.0886 6.92706 38.0886H39.0219C39.3814 38.0886 39.6909 37.8361 39.7637 37.4842L44.881 12.6491L44.8815 12.6471L45.6793 8.77028ZM38.4039 36.5738H7.54408L2.60342 12.5966C2.63876 12.6193 2.67461 12.64 2.70996 12.6632C6.22876 15.001 10.1035 15.0005 13.6213 12.6632C16.5993 10.6844 19.8788 10.6849 22.8558 12.6632C24.615 13.8316 26.4635 14.4163 28.3115 14.4163C30.1595 14.4163 32.0081 13.8316 33.7672 12.6632C36.7447 10.6849 40.0247 10.6849 43.0022 12.6632L43.2915 12.8556L38.4039 36.5738Z" fill="black"/>
<path d="M17.29 21.8261C17.29 19.8144 15.6531 18.1775 13.6414 18.1775C12.0318 18.1775 10.5942 19.2651 10.1469 20.8223C10.0313 21.2242 10.2635 21.6438 10.6654 21.7594C11.0679 21.875 11.4869 21.6433 11.6026 21.2409C11.8646 20.329 12.7033 19.6923 13.6414 19.6923C14.8179 19.6923 15.7752 20.6496 15.7752 21.8261C15.7752 22.9278 14.9325 23.8271 13.8591 23.9376C13.7869 23.9331 13.7147 23.9265 13.6414 23.9265C13.2229 23.9265 12.8841 24.2658 12.8841 24.6839C12.8841 24.6895 12.8856 24.695 12.8856 24.7006C12.8856 24.7061 12.8841 24.7112 12.8841 24.7172C12.8841 25.1353 13.2229 25.4746 13.6414 25.4746C13.7152 25.4746 13.7869 25.4681 13.8591 25.4635C14.932 25.5746 15.7752 26.4734 15.7752 27.5756C15.7752 28.7521 14.8179 29.7094 13.6414 29.7094C12.7033 29.7094 11.8646 29.0727 11.6026 28.1613C11.4869 27.7589 11.0689 27.5256 10.6654 27.6428C10.2635 27.7584 10.0313 28.178 10.1469 28.5794C10.5942 30.1366 12.0313 31.2242 13.6414 31.2242C15.6531 31.2242 17.29 29.5877 17.29 27.5756C17.29 26.4077 16.7366 25.3691 15.8803 24.7006C16.7366 24.0326 17.29 22.9939 17.29 21.8261Z" fill="black"/>
<path d="M23.4154 18.1775C21.0246 18.1775 19.0791 20.123 19.0791 22.5138V26.8879C19.0791 29.2787 21.0246 31.2242 23.4154 31.2242C25.8062 31.2242 27.7516 29.2787 27.7516 26.8879V22.5138C27.7516 20.123 25.8062 18.1775 23.4154 18.1775ZM26.2369 26.8879C26.2369 28.4436 24.971 29.7094 23.4154 29.7094C21.8597 29.7094 20.5939 28.4436 20.5939 26.8879V22.5138C20.5939 20.9581 21.8597 19.6923 23.4154 19.6923C24.971 19.6923 26.2369 20.9581 26.2369 22.5138V26.8879Z" fill="black"/>
<path d="M33.2832 18.1775C31.879 18.1775 30.7363 19.3201 30.7363 20.7243V22.9116C30.7363 24.3163 31.879 25.4585 33.2832 25.4585C34.6873 25.4585 35.83 24.3158 35.83 22.9116V20.7243C35.83 19.3201 34.6873 18.1775 33.2832 18.1775ZM34.3152 22.9111C34.3152 23.4802 33.8522 23.9432 33.2832 23.9432C32.7141 23.9432 32.2511 23.4802 32.2511 22.9111V20.7238C32.2511 20.1548 32.7141 19.6918 33.2832 19.6918C33.8522 19.6918 34.3152 20.1548 34.3152 20.7238V22.9111Z" fill="black"/>
</svg>
