<svg width="46" height="46" viewBox="0 0 46 46" fill="none" xmlns="http://www.w3.org/2000/svg">
<path d="M45.6793 8.77028C45.7641 8.36028 45.5006 7.96038 45.0906 7.87556C44.6801 7.79123 44.2807 8.0543 44.1964 8.46429L43.6192 11.2646C40.16 9.07071 36.3726 9.11261 32.9285 11.4014C29.9515 13.3807 26.671 13.3797 23.694 11.4014C20.1752 9.06414 16.3009 9.06364 12.7826 11.4014C9.80562 13.3797 6.52565 13.3797 3.54813 11.4014C3.16792 11.149 2.77762 10.9197 2.38782 10.7218C2.32521 10.69 2.26159 10.6627 2.19898 10.6324L1.75212 8.46429C1.6678 8.0543 1.26689 7.79073 0.857398 7.87556C0.447401 7.95988 0.184337 8.36028 0.268659 8.77028L6.18533 37.4842C6.25804 37.8361 6.56756 38.0886 6.92706 38.0886H39.0219C39.3814 38.0886 39.6909 37.8361 39.7637 37.4842L44.881 12.6491L44.8815 12.6471L45.6793 8.77028ZM38.4039 36.5738H7.54408L2.60342 12.5966C2.63876 12.6193 2.67461 12.64 2.70996 12.6632C6.22876 15.001 10.1035 15.0005 13.6213 12.6632C16.5993 10.6844 19.8788 10.6849 22.8558 12.6632C24.615 13.8316 26.4635 14.4163 28.3115 14.4163C30.1595 14.4163 32.0081 13.8316 33.7672 12.6632C36.7447 10.6849 40.0247 10.6849 43.0022 12.6632L43.2915 12.8556L38.4039 36.5738Z" fill="black"/>
<path d="M17.9251 28.0235C19.8771 28.0235 21.4595 26.441 21.4595 24.489C21.4595 22.537 19.8771 20.9546 17.9251 20.9546C15.9731 20.9546 14.3906 22.537 14.3906 24.489C14.3906 26.441 15.9731 28.0235 17.9251 28.0235Z" fill="black"/>
<path d="M28.0227 28.0235C29.9748 28.0235 31.5572 26.441 31.5572 24.489C31.5572 22.537 29.9748 20.9546 28.0227 20.9546C26.0707 20.9546 24.4883 22.537 24.4883 24.489C24.4883 26.441 26.0707 28.0235 28.0227 28.0235Z" fill="black"/>
</svg>
